<?xml version="1.0" encoding="UTF-8"?>
<svg version="1.1" viewBox="0 0 1024 1024" width="1280" height="1280" xmlns="http://www.w3.org/2000/svg">
<path transform="translate(0)" d="m0 0h1024v1024h-1024z" fill="#262424"/>
<path transform="translate(410,145)" d="m0 0h144l13 4 8 6 7 8 5 12 1 5 1 25v254l-1 26h-218v-311l4-12 7-8 14-7z" fill="#F8F9F8"/>
<path transform="translate(429,166)" d="m0 0h86l29 1 11 4 7 5 7 11 2 6v63l-3 9-4 8-9 9-11 5-3 1-21 1h-68l-36-1-11-4-10-9-5-8-2-7v-68l4-11 7-8 9-5 4-1z" fill="#F8F9F8"/>
<path transform="translate(133,563)" d="m0 0h37l12 3 8 4 7 8 3 9v28l-4 9-6 7 8 7 4 9 1 8v18l-2 13-6 9-9 6-8 3-10 1h-35l2-5 3-6v-120l-3-6z" fill="#F8F9F8"/>
<path transform="translate(683,563)" d="m0 0 44 1 11 4 6 4 6 7 2 5 1 6v34l-3 8-7 8-2 1 2 10 6 26 5 17 6 11h-25l-1-11-7-22-4-20v-5l-12 1v42l1 10 3 5h-30l3-5 2-3 1-12v-27l-1-85-6-8z" fill="#F8F9F8"/>
<path transform="translate(429,166)" d="m0 0h86l29 1 11 4 7 5 7 11 2 6v63l-3 9-4 8-9 9-11 5-3 1-21 1h-68l-36-1-11-4-10-9-5-8-2-7v-68l4-11 7-8 9-5 4-1zm83 13-98 1-10 5-4 6v33l1 35 4 8 8 6 3 1h122l9-3 5-3 5-9 1-10v-42l-1-14-4-6-7-6-5-2z" fill="#262424"/>
<path transform="translate(357,498)" d="m0 0h240l6 4 5 6 1 4v12h-264l1-14 4-7 5-4z" fill="#F8F9F8"/>
<path transform="translate(464,564)" d="m0 0h45l10 4 9 8 4 8 1 4v42l-3 8-7 8-7 4-10 2h-17l1 36 1 10 4 5v2h-31l5-9v-123l-3-5z" fill="#F8F9F8"/>
<path transform="translate(836,563)" d="m0 0 38 1 7 6 3 4v2l4 1 2 1v2l4 1 3 4 1 4v35l-4 8-10 10 1 3h-23l1 40 24-1 6-3 5-8h1v33h-61l-1-2 5-6v-126z" fill="#F8F9F8"/>
<path transform="translate(283,563)" d="m0 0h30l-2 4-2 3-1 16 1 91 3 6 3 2h10l6-7v-108l-5-7h31l-2 4-3 5-1 107-2 9-3 6-7 7-10 4-4 1h-11l-11-4-8-7-5-10-1-5-1-105-3-7z" fill="#F8F9F8"/>
<path transform="translate(602,320)" d="m0 0 5 1 8 5 8 13 3 8 1 6 1 107 3 12 5 10 8 8 6 3 11 1 9-3 5-3h2l2-4 5-9 3-13v-16l-4-22-8-38-5-25v-6l8-3 5 1 7 30 11 57 1 11v10l-3 17-6 12-9 10-10 6-10 3h-11l-12-4-8-6-9-8-6-10-4-13-1-7v-44l1-57-2-14-5-8-7-6v-9z" fill="#F8F9F8"/>
<path transform="translate(822,562)" d="m0 0h3l1 21 1 10-7-6-6-3h-21l-2 1-1 3v36h23l2-5 2-1-1 23 1 9-5-4-1-2h-21v40l32-1 2-4 2-3h2l-1 17 1 13-32-1h-32l6-8v-116l1-10-5-5-2-3 13 2 5-1 33-1z" fill="#F8F9F8"/>
<path transform="translate(543,563)" d="m0 0h59l1 22 1 7-8-8-27-1 1 3v30l-1 9 5-1 14-1 4-6h1v31l-5-4-18-1v41h24l5-3 4-6h1v15l1 17-4-1-58-1 5-7 1-3v-122l-3-6z" fill="#F8F9F8"/>
<path transform="translate(365,563)" d="m0 0h60l1 29-5-5-4-3-26-1v40h11l8-1 4-5v31l-6-5h-18l1 41h24l6-2v-2h2l1-3h2l1 29-62-1 5-8 1-3v-110l-1-13-5-6z" fill="#F8F9F8"/>
<path transform="translate(214,563)" d="m0 0h31l-2 4-3 5v112l25-1 5-3 4-5 2-2v33l-62-1 5-9v-120l-2-7-3-4z" fill="#F8F9F8"/>
<path transform="translate(611,563)" d="m0 0h65v30l-4-5-2-3-3-1-11-1 1 112 4 7 1 3h-31l6-9v-113l-11 1-5 3-8 7-2-1 4-13v-10z" fill="#F8F9F8"/>
<path transform="translate(484,732)" d="m0 0h18l6 9 9 16 2 6 5-5 6-11 10-15h15l-3 6-1 26v27l3 11-2 1-17-1 2-8 1-29-5 4-11 17-4-2-11-15-2-3-1 4 1 32h-19l3-6 1-6-1-51-2-5-3-1z" fill="#F8F9F8"/>
<path transform="translate(343,732)" d="m0 0h31l10 2 8 6 5 10 1 4v7l-3 8-4 5-10 5-5 1h-13l1 19 1 4h-23l5-7 1-6v-50l-4-6z" fill="#F8F9F8"/>
<path transform="translate(571,731)" d="m0 0 32 1 7 2 8 6 4 6 2 7v9l-4 8-9 7-8 3-12 1v14l1 8h-20l2-5 1-1v-58z" fill="#F8F9F8"/>
<path transform="translate(651,205)" d="m0 0h2l2 10 12 8 7 7 3 6v62l-1 1h-11l-1-5-1-27-1-5v-7l-24-1-6-4-5-9v-11l2-4v-6l-3-6 10-3z" fill="#F8F9F8"/>
<path transform="translate(139,453)" d="m0 0h193l2 3v7l-1 1h-195l-3-3 1-6z" fill="#F8F9F8"/>
<path transform="translate(804,781)" d="m0 0h80l9 1 4 4-1 6-3 2h-94l-76 1-7-3 1-7 3-3z" fill="#F8F9F8"/>
<path transform="translate(411,731)" d="m0 0h22l-2 5v43l4 7 8 2 6-3 3-7v-39l-2-7h19l-3 6v46l-4 9-8 7-10 4h-11l-8-4-6-9-3-8-1-46z" fill="#F8F9F8"/>
<path transform="translate(723,742)" d="m0 0 169 1 5 4-1 5-3 3h-171l-5-3v-6l3-3z" fill="#F8F9F8"/>
<path transform="translate(140,743)" d="m0 0h171l3 3v7l-2 2h-162l-11-1-4-4 1-4z" fill="#F8F9F8"/>
<path transform="translate(160,781)" d="m0 0h28l124 1 3 4 1 5-2 3h-70l-104-1-5-5 2-5 1-1z" fill="#F8F9F8"/>
<path transform="translate(660,731)" d="m0 0h8l9 3 9 6-2 4-6 7-4-2-9-3-7 2-1 1v5l5 4 15 5 8 7 3 7v9l-3 6-8 7-9 4h-12l-9-3-10-8 1-4 7-6 4 2 5 4 10 1 7-3 1-2v-6l-6-4-16-6-5-4-4-8 1-10 6-9 5-4z" fill="#F8F9F8"/>
<path transform="translate(644,821)" d="m0 0h21l9 2 8 6 4 5 2 4v16l-6 10-8 5-3 1-25 1-1-31z" fill="#F8F9F8"/>
<path transform="translate(744,452)" d="m0 0 148 1 4 4-1 5-3 2h-144l-12-1-2-2v-6l2-2z" fill="#F8F9F8"/>
<path transform="translate(432,821)" d="m0 0h10l11 15 5 5 2-4 6-9 6-7h7l1 48-9 1-1-1-2-21h-2l-2 4-7 9-4-2-8-8v-2h-2v20l-1 1h-10z" fill="#F8F9F8"/>
<path transform="translate(413,198)" d="m0 0h18l6 3 4 5 1 2v7l-3 5v3l4 4 1 6-3 7-6 5-7 1h-14z" fill="#262424"/>
<path transform="translate(490,583)" d="m0 0h18l5 5 1 3v34l-4 6-5 3-5 1h-10z" fill="#262424"/>
<path transform="translate(590,821)" d="m0 0h31l1 2v8l-3 1-17 1-1 7h16v11h-11l-5-1v9h22l1 3v8h-34z" fill="#F8F9F8"/>
<path transform="translate(628,257)" d="m0 0 3 1-4 10v8l6 18 2 9v4l30-1 5-1h8l4 3 1 9-1 1h-57l-5-3-1-7 6-2-3-7-3-15v-16l4-7z" fill="#F8F9F8"/>
<path transform="translate(482,312)" d="m0 0h10l10 1 6 5 1 2v13l-3 5-1 5 6 18-2 2-7-1-6-14-2-4-2-1v20l-8-1z" fill="#262424"/>
<path transform="translate(710,583)" d="m0 0h15l6 4 3 6v27l-3 5-5 4-9 2h-7z" fill="#262424"/>
<path transform="translate(158,641)" d="m0 0h17l5 3 3 7v21l-2 5-7 6-3 1h-13l-1-14v-28z" fill="#262424"/>
<path transform="translate(597,131)" d="m0 0 5 5 6 7 17 13 9 8 8 30 1 2-13 5h-2l-2-15-3-15-7-6-13-10-12-11-1-1v-5l4-5z" fill="#F8F9F8"/>
<path transform="translate(391,312)" d="m0 0h13l7 2 5 5 1 2v15l-3 6-3 2-11 1v18l-8-1-1-3z" fill="#262424"/>
<path transform="translate(480,197)" d="m0 0 9 1 1 33 1 3h7l1-36 9-1 1 38-3 6-5 4-3 1h-8l-6-4-3-4-1-3z" fill="#262424"/>
<path transform="translate(464,388)" d="m0 0 7 1 7 13 3 1 6-10 2-5 7 1 2 6v30h-8l-1-2v-15l-8 15-4-2-6-11-1 14-3 1-4-1v-35z" fill="#262424"/>
<path transform="translate(863,582)" d="m0 0h15l2 4 3 5 1 25-3 9-2 2-7 1h-10z" fill="#262424"/>
<path transform="translate(157,582)" d="m0 0h15l6 4 2 3 1 8-1 17-6 7-2 1-14 1-1-19z" fill="#262424"/>
<path transform="translate(517,198)" d="m0 0h26l-1 9-3 1h-12v10h10l1 1v7l-3 1h-7v9h14l1 1v9h-25l-1-3z" fill="#262424"/>
<path transform="translate(347,822)" d="m0 0h11l1 10v27h21l1 11-34 1z" fill="#F8F9F8"/>
<path transform="translate(535,821)" d="m0 0h35v11h-13l1 20v18h-11v-37l-14-1 1-10z" fill="#F8F9F8"/>
<path transform="translate(519,312)" d="m0 0h20l-1 9-12 1v9h11l-2 9-8 1-1 11h12v10h-11l-9-1-1-2v-28l1-18z" fill="#262424"/>
<path transform="translate(397,387)" d="m0 0 17 1 7 8 1 9-4 5-8 3h-6l1 11-5 1-4-1v-36z" fill="#262424"/>
<path transform="translate(508,388)" d="m0 0h16l5 3 4 5v8l-6 7-6 2h-6l1 11h-9z" fill="#262424"/>
<path transform="translate(547,312)" d="m0 0h9l1 28 1 11 12 1 1 3-2 7h-22l-1-3v-25z" fill="#262424"/>
<path transform="translate(427,311)" d="m0 0 6 1 2 1v23h9l1 4-9 3-1 8 13 1-1 9-1 1h-20v-36z" fill="#262424"/>
<path transform="translate(428,387)" d="m0 0 8 1 1 27 7-1 2-25 1-1h5l2 4-1 24-6 7-4 2-8-1-5-4-2-7z" fill="#262424"/>
<path transform="translate(451,197)" d="m0 0 9 1 1 4v33h14v10h-24z" fill="#262424"/>
<path transform="translate(549,387)" d="m0 0h6l6 4 2 4-5 2-9-1v4l11 4 4 5v7l-4 5-6 3h-7l-8-5-1-5 5-1 4 2h5l1-4-9-5-4-4v-8l6-6z" fill="#262424"/>
<path transform="translate(507,821)" d="m0 0h6l1 7 1 42h-12v-48z" fill="#F8F9F8"/>
<path transform="translate(452,312)" d="m0 0h24l1 1v5l-7 4-1 2v36l-1 1h-7v-38h-7l-2-3z" fill="#262424"/>
<path transform="translate(399,822)" d="m0 0h10l1 22v26h-10z" fill="#F8F9F8"/>
<path transform="translate(656,832)" d="m0 0h9l6 3 5 6v10l-4 6-5 2h-10l-1-11z" fill="#262424"/>
<path transform="translate(363,746)" d="m0 0h11l5 2 3 3 1 3v7l-3 5-4 2h-14v-14z" fill="#262424"/>
<path transform="translate(590,746)" d="m0 0 13 1 5 2 2 5v7l-4 5-2 1h-15z" fill="#262424"/>
<path transform="translate(646,263)" d="m0 0h3v5l-4 8 1 8 4 8v8l-5 1-4-9-4-12v-8l7-8z" fill="#F8F9F8"/>
<path transform="translate(675,329)" d="m0 0 5 1 3 9-1 4-9 2h-6l-3-7-1-7z" fill="#F8F9F8"/>
<path transform="translate(476,253)" d="m0 0 6 1 2 2-1 6-4 3-5-1-3-3 1-6z" fill="#262424"/>
<path transform="translate(400,322)" d="m0 0 7 1 1 9-3 3h-6v-10z" fill="#F8F9F8"/>
<path transform="translate(492,322)" d="m0 0h6l2 1v7l-3 3h-6v-10z" fill="#F8F9F8"/>
<path transform="translate(425,226)" d="m0 0h7l1 1v7l-6 2-4-1v-8z" fill="#F8F9F8"/>
<path transform="translate(423,208)" d="m0 0h9v7l-2 2h-7z" fill="#F8F9F8"/>
<path transform="translate(405,396)" d="m0 0 7 1 1 5-3 3h-5l-1-8z" fill="#F8F9F8"/>
<path transform="translate(516,396)" d="m0 0 7 1 1 5-3 3-4 1-1-1z" fill="#F8F9F8"/>
</svg>
